<?xml version="1.0" encoding="UTF-8"?>
<svg xmlns="http://www.w3.org/2000/svg" xmlns:xlink="http://www.w3.org/1999/xlink" id="Group_69058" data-name="Group 69058" width="223.935" height="72.746" viewBox="0 0 223.935 72.746">
  <defs>
    <clipPath id="clip-path">
      <rect id="Rectangle_9809" data-name="Rectangle 9809" width="223.935" height="72.746" fill="none"></rect>
    </clipPath>
  </defs>
  <g id="Group_69057" data-name="Group 69057" clip-path="url(#clip-path)">
    <path id="Path_96779" data-name="Path 96779" d="M32.567,133.365a1.68,1.68,0,0,1-1.158-.41,1.48,1.48,0,0,1-.462-1.165,1.541,1.541,0,0,1,.809-1.4,6.688,6.688,0,0,1,2.591-.677,2.641,2.641,0,0,0-.051-.515,1.277,1.277,0,0,0-.177-.444.918.918,0,0,0-.348-.314,1.17,1.17,0,0,0-.564-.121,2.266,2.266,0,0,0-.9.182,4.462,4.462,0,0,0-.754.413l-.365-.652a6.04,6.04,0,0,1,.947-.484,3.161,3.161,0,0,1,1.233-.234,1.706,1.706,0,0,1,1.472.622,2.743,2.743,0,0,1,.457,1.661v3.4h-.776l-.081-.661H34.4a4.826,4.826,0,0,1-.855.565,2.127,2.127,0,0,1-.982.234m.274-.754a1.593,1.593,0,0,0,.753-.188,3.833,3.833,0,0,0,.753-.553v-1.542a9.687,9.687,0,0,0-1.17.217,3.056,3.056,0,0,0-.764.3,1.139,1.139,0,0,0-.422.394.939.939,0,0,0-.131.485.788.788,0,0,0,.285.686,1.171,1.171,0,0,0,.7.2" transform="translate(-15.656 -64.522)" fill="#676766"></path>
    <path id="Path_96780" data-name="Path 96780" d="M47.438,135.568v-7.887h.776l.08.639h.035a4.14,4.14,0,0,1,.828-.548,2.049,2.049,0,0,1,.942-.229,2.14,2.14,0,0,1,.947.2,1.851,1.851,0,0,1,.684.571,2.653,2.653,0,0,1,.416.889,4.4,4.4,0,0,1,.143,1.171,3.812,3.812,0,0,1-.194,1.261,2.923,2.923,0,0,1-.525.942,2.215,2.215,0,0,1-.764.587,2.158,2.158,0,0,1-.913.2,1.885,1.885,0,0,1-.771-.171,4.008,4.008,0,0,1-.77-.468l.022.97v1.872Zm2.294-2.991a1.335,1.335,0,0,0,.632-.154,1.5,1.5,0,0,0,.5-.434,2.131,2.131,0,0,0,.332-.689,3.328,3.328,0,0,0,.12-.925,4.065,4.065,0,0,0-.08-.834,1.894,1.894,0,0,0-.257-.645,1.223,1.223,0,0,0-.456-.416,1.411,1.411,0,0,0-.668-.149,1.487,1.487,0,0,0-.713.2,4.14,4.14,0,0,0-.771.559v2.909a2.482,2.482,0,0,0,.731.451,1.837,1.837,0,0,0,.628.132" transform="translate(-23.998 -64.522)" fill="#676766"></path>
    <path id="Path_96781" data-name="Path 96781" d="M60.629,133.365a1.681,1.681,0,0,1-1.158-.41,1.48,1.48,0,0,1-.462-1.165,1.542,1.542,0,0,1,.81-1.4,6.683,6.683,0,0,1,2.591-.677,2.6,2.6,0,0,0-.051-.515,1.268,1.268,0,0,0-.177-.444.915.915,0,0,0-.348-.314,1.171,1.171,0,0,0-.565-.121,2.265,2.265,0,0,0-.9.182,4.462,4.462,0,0,0-.754.413l-.365-.652a6.025,6.025,0,0,1,.948-.484,3.158,3.158,0,0,1,1.232-.234,1.707,1.707,0,0,1,1.472.622,2.743,2.743,0,0,1,.457,1.661v3.4h-.776l-.08-.661h-.034a4.83,4.83,0,0,1-.856.565,2.127,2.127,0,0,1-.982.234m.274-.754a1.591,1.591,0,0,0,.753-.188,3.85,3.85,0,0,0,.754-.553v-1.542a9.651,9.651,0,0,0-1.17.217,3.06,3.06,0,0,0-.765.3,1.146,1.146,0,0,0-.422.394.943.943,0,0,0-.13.485.789.789,0,0,0,.285.686,1.172,1.172,0,0,0,.7.2" transform="translate(-29.852 -64.522)" fill="#676766"></path>
    <path id="Path_96782" data-name="Path 96782" d="M71.112,133.228v-5.546h.775l.081,1.005H72a2.565,2.565,0,0,1,.691-.834,1.436,1.436,0,0,1,.884-.308,1.476,1.476,0,0,1,.593.115l-.183.821a2.049,2.049,0,0,0-.251-.069,1.471,1.471,0,0,0-.285-.023,1.238,1.238,0,0,0-.737.286,2.264,2.264,0,0,0-.668.992v3.561Z" transform="translate(-35.974 -64.522)" fill="#676766"></path>
    <path id="Path_96783" data-name="Path 96783" d="M79.963,131.916a1.814,1.814,0,0,1-.748-.137,1.3,1.3,0,0,1-.492-.377,1.462,1.462,0,0,1-.267-.582,3.286,3.286,0,0,1-.08-.754V127h-.822v-.707l.867-.058.114-1.553h.788v1.553h1.495V127H79.324v3.082a1.423,1.423,0,0,0,.188.794.747.747,0,0,0,.668.279,1.272,1.272,0,0,0,.32-.045,2.368,2.368,0,0,0,.308-.1l.183.708a4.948,4.948,0,0,1-.5.143,2.371,2.371,0,0,1-.53.063" transform="translate(-39.234 -63.073)" fill="#676766"></path>
    <path id="Path_96784" data-name="Path 96784" d="M92.595,133.365a2.483,2.483,0,0,1-.976-.195,2.393,2.393,0,0,1-.816-.565,2.744,2.744,0,0,1-.565-.912,3.7,3.7,0,0,1,0-2.465,2.807,2.807,0,0,1,.565-.92,2.352,2.352,0,0,1,.816-.57,2.537,2.537,0,0,1,1.952,0,2.352,2.352,0,0,1,.816.57,2.825,2.825,0,0,1,.565.92,3.706,3.706,0,0,1,0,2.465,2.761,2.761,0,0,1-.565.912,2.393,2.393,0,0,1-.816.565,2.484,2.484,0,0,1-.976.195m0-.776a1.4,1.4,0,0,0,.65-.154,1.493,1.493,0,0,0,.508-.433,2.065,2.065,0,0,0,.325-.669,3.054,3.054,0,0,0,.115-.868,3.11,3.11,0,0,0-.115-.873,2.1,2.1,0,0,0-.325-.678,1.457,1.457,0,0,0-.508-.44,1.449,1.449,0,0,0-1.3,0,1.453,1.453,0,0,0-.508.44,2.088,2.088,0,0,0-.325.678,3.129,3.129,0,0,0-.114.873,3.072,3.072,0,0,0,.114.868,2.056,2.056,0,0,0,.325.669,1.488,1.488,0,0,0,.508.433,1.4,1.4,0,0,0,.65.154" transform="translate(-45.543 -64.522)" fill="#676766"></path>
    <path id="Path_96785" data-name="Path 96785" d="M102.7,130.588v-4.782h-.753V125.1l.753-.058v-.879a2.093,2.093,0,0,1,.394-1.347,1.477,1.477,0,0,1,1.227-.49,2.385,2.385,0,0,1,.5.05,2.606,2.606,0,0,1,.428.132l-.205.718a1.539,1.539,0,0,0-.628-.137q-.775,0-.776,1.074v.879h1.176v.765h-1.176v4.782Z" transform="translate(-51.572 -61.882)" fill="#676766"></path>
    <path id="Path_96786" data-name="Path 96786" d="M219.255,131.186a3.127,3.127,0,0,0,.928,2.215,3.054,3.054,0,0,0,4.2.138l-4.735-3.892a3.144,3.144,0,0,0-.4,1.539" transform="translate(-110.917 -65.586)" fill="#688f05"></path>
    <path id="Path_96787" data-name="Path 96787" d="M235.525,133.344a3.139,3.139,0,0,0,.514-3.737l-4.707,3.915a3.051,3.051,0,0,0,4.193-.178" transform="translate(-117.027 -65.566)" fill="#688f05"></path>
    <path id="Path_96788" data-name="Path 96788" d="M235.411,126.7l-1.489-1.458-2.784,2.308.011,2.928,4.386-3.648c-.04-.044-.081-.087-.124-.13" transform="translate(-116.928 -63.358)" fill="#688f05"></path>
    <path id="Path_96789" data-name="Path 96789" d="M231.1,119.691l.016,4.15,2.287-1.9Z" transform="translate(-116.908 -60.549)" fill="#688f05"></path>
    <path id="Path_96790" data-name="Path 96790" d="M225.108,121.974l2.279,1.859-.016-4.11Z" transform="translate(-113.878 -60.566)" fill="#688f05"></path>
    <path id="Path_96791" data-name="Path 96791" d="M225.251,127.544l-2.779-2.266-1.486,1.476c-.036.037-.072.075-.107.114l4.383,3.6Z" transform="translate(-111.739 -63.376)" fill="#688f05"></path>
    <path id="Path_96792" data-name="Path 96792" d="M227.987,116.478a8.222,8.222,0,0,0-11.582,11.673,8.067,8.067,0,0,0,5.36,2.31l.011-3.961a3.734,3.734,0,0,1-2.072.639,3.773,3.773,0,0,1-2.683-1.112A3.832,3.832,0,0,1,217,120.6l5.087-5.058,5.128,5.019a3.833,3.833,0,0,1,.021,5.421,3.744,3.744,0,0,1-4.765.5l-.011,3.975a8.172,8.172,0,0,0,5.526-13.985" transform="translate(-108.246 -57.717)" fill="#688f05"></path>
    <path id="Path_96793" data-name="Path 96793" d="M182,119.347a.88.88,0,0,0,.887-.873.886.886,0,1,0-1.771,0,.879.879,0,0,0,.884.873" transform="translate(-91.621 -59.48)" fill="#2b2a29"></path>
    <path id="Path_96794" data-name="Path 96794" d="M181.738,122.116a1.133,1.133,0,0,0-.484.111v8.4h1.63v-7.371a1.146,1.146,0,0,0-1.146-1.145" transform="translate(-91.693 -61.776)" fill="#2b2a29"></path>
    <path id="Path_96795" data-name="Path 96795" d="M143.823,125.621c0-.048.007-.1.007-.147a4.608,4.608,0,1,0-1.542,3.425v.585a2.935,2.935,0,0,1-3.1,2.871h-.951v-.006l-2.029-.035-.043,0a.066.066,0,0,1-.019,0,1.109,1.109,0,0,0-.254.047,1.051,1.051,0,0,0-.643,1.46l.017.035,3.922.035a4.512,4.512,0,0,0,4.642-4.413v-3.793l-.008-.046a.191.191,0,0,1,0-.024m-4.586,2.905a3.052,3.052,0,1,1,3.051-3.053,3.056,3.056,0,0,1-3.051,3.053" transform="translate(-68.114 -61.151)" fill="#2b2a29"></path>
    <path id="Path_96796" data-name="Path 96796" d="M157.094,117.508v-2.27a1.145,1.145,0,0,0-1.144-1.145,1.13,1.13,0,0,0-.485.111v12.369h1.63v-7.435h.932a1.145,1.145,0,0,0,1.146-1.144,1.133,1.133,0,0,0-.111-.485Z" transform="translate(-78.646 -57.718)" fill="#2b2a29"></path>
    <path id="Path_96797" data-name="Path 96797" d="M167.943,117.507a3.957,3.957,0,0,0-2.054.523v-2.792a1.14,1.14,0,0,0-1.631-1.035v12.37h1.631v-5.908a1.88,1.88,0,0,1,2.054-1.577,1.915,1.915,0,0,1,2.1,2.131v5.354h1.582V121.22a3.465,3.465,0,0,0-3.683-3.712" transform="translate(-83.096 -57.718)" fill="#2b2a29"></path>
    <path id="Path_96798" data-name="Path 96798" d="M195.268,125.621c0-.048.006-.1.006-.147a4.593,4.593,0,1,0-4.593,4.593,4.416,4.416,0,0,0,3.176-1.3c.048.558.384,1.139.955,1.139a1.079,1.079,0,0,0,.462-.106v-4.106l-.008-.046a.188.188,0,0,0,0-.024m-4.586,2.905a3.052,3.052,0,1,1,3.052-3.053,3.055,3.055,0,0,1-3.052,3.053" transform="translate(-94.139 -61.151)" fill="#2b2a29"></path>
    <path id="Path_96799" data-name="Path 96799" d="M123.546,125.621c0-.048.006-.1.006-.147a4.593,4.593,0,1,0-4.593,4.593,4.416,4.416,0,0,0,3.176-1.3c.048.558.384,1.139.955,1.139a1.08,1.08,0,0,0,.462-.106v-4.106l-.008-.046a.191.191,0,0,0,0-.024m-4.586,2.905a3.052,3.052,0,1,1,3.051-3.053,3.055,3.055,0,0,1-3.051,3.053" transform="translate(-57.856 -61.151)" fill="#2b2a29"></path>
    <path id="Path_96800" data-name="Path 96800" d="M262.8,118.72a.769.769,0,0,0,.776-.764.777.777,0,1,0-1.553,0,.771.771,0,0,0,.777.764" transform="translate(-132.553 -59.272)" fill="#2b2a29"></path>
    <path id="Path_96801" data-name="Path 96801" d="M266.848,118.72a.771.771,0,0,0,.777-.764.777.777,0,1,0-1.553,0,.77.77,0,0,0,.776.764" transform="translate(-134.601 -59.272)" fill="#2b2a29"></path>
    <path id="Path_96802" data-name="Path 96802" d="M275.541,141a.783.783,0,0,0-.776.79.776.776,0,0,0,1.552,0,.782.782,0,0,0-.776-.79" transform="translate(-138.999 -71.331)" fill="#2b2a29"></path>
    <path id="Path_96803" data-name="Path 96803" d="M279.651,141a.783.783,0,0,0-.776.79.777.777,0,0,0,1.554,0,.783.783,0,0,0-.777-.79" transform="translate(-141.078 -71.331)" fill="#2b2a29"></path>
    <path id="Path_96804" data-name="Path 96804" d="M300.6,118.875a.836.836,0,0,0,.843-.831.844.844,0,1,0-1.688,0,.837.837,0,0,0,.845.831" transform="translate(-151.641 -59.282)" fill="#2b2a29"></path>
    <path id="Path_96805" data-name="Path 96805" d="M344.374,122.391a.992.992,0,0,0-.426.1v8.5h1.43v-7.6a1,1,0,0,0-1-1.005" transform="translate(-173.997 -61.915)" fill="#2b2a29"></path>
    <path id="Path_96806" data-name="Path 96806" d="M315.562,129.209h-5.753a2.867,2.867,0,1,1,2.7-3.79,1.04,1.04,0,0,0,.068.236,1.062,1.062,0,0,0,1.581.46,4.358,4.358,0,1,0-7.659,3.05l.038.044-6.888-.07.038-.044a4.364,4.364,0,0,0-3.323-7.2c-.06,0-.12,0-.178.006h-.032c-.122.005-.231.015-.336.028a1.056,1.056,0,0,0-.574,1.686,2.822,2.822,0,0,1,1.787-.146,2.873,2.873,0,0,1-.645,5.668h-4.1a1.052,1.052,0,0,0-.969,1.493h5.079l18.2.071a1.063,1.063,0,0,0,1.065-1.06,1.043,1.043,0,0,0-.1-.435" transform="translate(-147.321 -61.665)" fill="#2b2a29"></path>
    <path id="Path_96807" data-name="Path 96807" d="M273.206,121.85a1.009,1.009,0,0,0-1,.944c0,.02-.006.04-.006.06v1.91h.006v1.013a3.127,3.127,0,0,1-3.123,3.123h-4.7a4.54,4.54,0,1,0-3.295,1.424c.072,0,.145-.008.216-.01v.01h7.775a4.552,4.552,0,0,0,4.547-4.546v-3.831a.992.992,0,0,0-.426-.1m-12.112,6.95a3.021,3.021,0,1,1,3.021-3.022,3.025,3.025,0,0,1-3.021,3.022" transform="translate(-129.782 -61.329)" fill="#2b2a29"></path>
    <path id="Path_96808" data-name="Path 96808" d="M327.333,119a.837.837,0,0,1-.844-.831.844.844,0,1,1,1.688,0,.837.837,0,0,1-.844.831" transform="translate(-165.165 -59.345)" fill="#2b2a29"></path>
    <path id="Path_96809" data-name="Path 96809" d="M344.641,117.8h.254a.291.291,0,0,0,.315-.321v-.155h-.591a.732.732,0,0,0-.833.779.538.538,0,0,0,.254.413h-.12a.293.293,0,0,0-.3.335V119H344.9a.288.288,0,0,0,.315-.324v-.155h-.556c-.335,0-.448-.195-.448-.343,0-.208.124-.377.434-.377" transform="translate(-173.83 -59.354)" fill="#2b2a29"></path>
    <path id="Path_96810" data-name="Path 96810" d="M364.163,133.274h.4v.708h-.491a1.981,1.981,0,0,1-1.176-.331,2.479,2.479,0,0,1-.959,1.884,3.059,3.059,0,0,1-1.964.615,2.68,2.68,0,0,1-2.247-1.028,2.921,2.921,0,0,1-.628-1.882,2.847,2.847,0,0,1,.5-1.69l.743-.148a3.174,3.174,0,0,0-.548,1.781,2.249,2.249,0,0,0,.65,1.655,2.071,2.071,0,0,0,1.528.6,2.177,2.177,0,0,0,1.68-.639,1.94,1.94,0,0,0,.49-1.38V129.5l.764-.4v2.877a1.13,1.13,0,0,0,1.256,1.3m-4.222-4.519a.419.419,0,0,1-.468-.479.409.409,0,0,1,.468-.457.4.4,0,0,1,.446.457q0,.479-.446.479" transform="translate(-180.65 -64.661)" fill="#676766"></path>
    <path id="Path_96811" data-name="Path 96811" d="M373.394,132.092a1.95,1.95,0,0,1,.583-1.507,2.125,2.125,0,0,1,2.955.32,2.842,2.842,0,0,1,.491,1.735,2.7,2.7,0,0,1-.628,1.906,1.827,1.827,0,0,1-1.427.606,1.885,1.885,0,0,1-1.6-.686,1.8,1.8,0,0,1-1.54.686h-.491v-.708h.4q1.253,0,1.254-1.3Zm.765,1.1a1.1,1.1,0,0,0,1.233,1.256,1.084,1.084,0,0,0,.934-.479,2.263,2.263,0,0,0,.344-1.336,2.172,2.172,0,0,0-.36-1.324,1.191,1.191,0,0,0-1.01-.479q-1.14,0-1.141,1.336Z" transform="translate(-188.056 -65.83)" fill="#676766"></path>
    <path id="Path_96812" data-name="Path 96812" d="M391.327,136.166v-.73a2.689,2.689,0,0,1,1.2-.446,2.916,2.916,0,0,1-.582-1.757,2.518,2.518,0,0,1,.452-1.536,1.862,1.862,0,0,1,1.225-.747,1.785,1.785,0,0,1,.342-.033,1.99,1.99,0,0,1,1.633.81v.763a2.04,2.04,0,0,0-1.6-.879,1.345,1.345,0,0,0-.263.024q-1.026.2-1.027,1.551a2.15,2.15,0,0,0,.721,1.69c.1-.009.234-.013.41-.013a4.137,4.137,0,0,0,2.374-.65v.708a4.5,4.5,0,0,1-2.5.628,4.086,4.086,0,0,0-2.385.617" transform="translate(-197.965 -66.228)" fill="#676766"></path>
    <path id="Path_96813" data-name="Path 96813" d="M405.071,132.083h.4v.708h-.49a1.94,1.94,0,0,1-1.176-.342,2.291,2.291,0,0,1-2.305,2.522,2.736,2.736,0,0,1-1.278-.321v-.672a2.435,2.435,0,0,0,1.187.319,1.616,1.616,0,0,0,.843-.217,1.912,1.912,0,0,0,.8-1.791v-3.985l.754-.4v.013l.011-.013v2.878q0,1.3,1.256,1.3m-1.713-5.684a.419.419,0,0,1-.468-.479.408.408,0,0,1,.468-.455.4.4,0,0,1,.446.455c0,.319-.148.479-.446.479" transform="translate(-202.464 -63.47)" fill="#676766"></path>
    <path id="Path_96814" data-name="Path 96814" d="M410.382,135.152v-.708h1.278a4.752,4.752,0,0,0,3.881-1.689q-1.017-1.942-2.454-1.941a2.671,2.671,0,0,0-1.919.994v-.754a2.782,2.782,0,0,1,1.952-.923h.022q1.792,0,3.106,2.418v.468a5.515,5.515,0,0,1-4.6,2.135Zm3.013,2.134a.418.418,0,0,1-.468-.479.409.409,0,0,1,.468-.457.4.4,0,0,1,.444.457q0,.48-.444.479" transform="translate(-207.605 -65.831)" fill="#676766"></path>
    <path id="Path_96815" data-name="Path 96815" d="M5.9,25.7a1.055,1.055,0,0,0,1.115,1.067A1.056,1.056,0,0,0,8.11,25.7a1.1,1.1,0,1,0-2.206,0m56.6-.024a1.1,1.1,0,0,0,2.205,0,1.1,1.1,0,1,0-2.205,0m17.708-.429h0l.74.218c.713.21.713.326.713.885V37.612c0,1.578-.665,2.31-2.094,2.31H65.566a2.7,2.7,0,0,1-1.333-.266C66.33,38.5,68.6,36.828,68.6,34.09c0-2.451-2.22-4.372-5.1-4.372s-5.149,1.889-5.149,4.3c0,2.1,1.275,4.136,3.5,5.633a3.948,3.948,0,0,1-1.929.274h-12a8.15,8.15,0,0,0,.112-1.265V29.765h-1.77a6.808,6.808,0,0,0-7.165,7.215A3.929,3.929,0,0,0,42.8,40.938h2.985c-.788,2.888-2.874,3.576-5.31,4.118l-1.233.274,1.257.1c.93.076,1.254.1,1.6.1a5.539,5.539,0,0,0,5.644-4.593H60.414a5.218,5.218,0,0,0,2.363-.529l.176-.079.027.017a4.922,4.922,0,0,0,2.926.591H80.083A3.179,3.179,0,0,0,83.6,37.612V24.563Zm-19.95,8.769h0c0-.189,0-.475.021-.661a2.919,2.919,0,0,1,3.142-2.623h.05c1.828,0,2.917,1.218,2.917,3.259,0,2.674-1.036,3.4-2.754,4.6l-.459.3a6.018,6.018,0,0,1-2.917-4.875M41.019,36.835c0-3.651,2.413-6.1,4.668-6.1a2.237,2.237,0,0,1,.394.036v7.983c-.022.431-.042.8-.095,1.172H43.34c-1.508-.066-2.32-1.641-2.32-3.088M86,25.248l.755.217c.736.211.736.327.736.885V40.938h1.913V24.563ZM27.079,35.132h0a6.172,6.172,0,0,0,2.135,4.791H11.135c-.939-.044-1.4-.675-1.4-1.922V31.511a7.822,7.822,0,0,1,.117-1.657l.056-.236H8.9l-.057.1a2.418,2.418,0,0,0-.145.352c-.112.311-.2.548-.369.548a2.174,2.174,0,0,1-.461-.257,5.28,5.28,0,0,0-2.893-1.005c-2.4,0-4.979,2.19-4.979,5.731,0,3.227,1.983,5.852,4.419,5.852a4.134,4.134,0,0,0,3.206-1.353,5.375,5.375,0,0,0,.608-.857c.534,2.029,2.054,2.21,3.575,2.21H32.519a4.562,4.562,0,0,0,3.027-.733c.126-.074.265-.154.421-.24l.221-.123-.773-.773-.356.221a2.731,2.731,0,0,1-1.713.631H32.253c-1.891,0-3.066-1.824-3.066-4.764,0-1.973.614-4.563,2.976-4.789a3.278,3.278,0,0,1,3.417,3.183,1.27,1.27,0,0,0,.654-1.237c0-1.606-1.845-2.961-4.031-2.961-3.327,0-5.124,2.977-5.124,5.778m-25.069.122c0-2.431.919-4.886,2.968-4.886,2.549,0,2.9,2.213,2.9,4.377a10.357,10.357,0,0,1-.284,3,2.974,2.974,0,0,1-2.831,2.174c-1.022,0-2.748-.981-2.748-4.669m167.185-9.1V39.226c-.012.615-.986,1.712-1.6,1.712h4.942c-.615,0-1.589-1.1-1.6-1.71V33.275h3.328c.449.018,1.39.886,1.39,1.336V30.927c0,.449-.957,1.326-1.4,1.335h-3.316V25.587h4.2a1.875,1.875,0,0,1,1.412,1.338V24.563H167.6a2.227,2.227,0,0,1,1.592,1.591m7.946,6.6h0a8.182,8.182,0,1,0,16.364,0,8.182,8.182,0,1,0-16.364,0m2,0c0-4.256,2.486-7.118,6.185-7.118s6.183,2.862,6.183,7.118-2.486,7.121-6.183,7.121-6.185-2.861-6.185-7.121m20.625-8.186h0v.21c0,.323-5.874,14.24-5.874,14.24a3.607,3.607,0,0,1-2.179,1.925h4.917c-.246,0-.885-.755-1.015-.941a.858.858,0,0,1-.049-.8l1.445-3.686h5.729l1.378,3.668a.875.875,0,0,1-.041.82c-.132.188-.77.943-1.015.943h5.448c-.572,0-1.735-.98-2.165-1.924l-5.974-14.323-.054-.128Zm.171,3.478,2.394,6.378h-4.893Zm-62.42-2.9h0c1.741-.629,3.228.29,4.238,1.674l-5.133,12.258a3.471,3.471,0,0,1-2.1,1.849h4.726c-.235,0-.849-.726-.975-.906a.819.819,0,0,1-.047-.77l1.386-3.542h5.525l.656,1.939C147,41.2,148.2,44,150.209,44.955a4.785,4.785,0,0,0,2.086.484,5.349,5.349,0,0,0,1.84-.344c-3.459.732-5.32-4.37-6.585-7.963l-2.5-7.1c-.643-1.81-1.516-4.294-3.477-5.159a3.84,3.84,0,0,0-1.554-.312,6.47,6.47,0,0,0-2.5.573m4.9,3.414,2.333,6.1h-4.726Zm7.765-3.285.77.218c.752.215.752.334.752.906V39.227c-.01.614-.983,1.71-1.6,1.71h8.942L160.4,37.2a4.318,4.318,0,0,1-4.17,2.718H153.66V24.563Zm68.811-.7c.614,0,1.576,1.076,1.6,1.683v5.91h-8.106V26.261c.018-.617.977-1.7,1.6-1.7H209.15c.62,0,1.584,1.083,1.6,1.7V39.233c-.011.621-.971,1.7-1.6,1.7h4.936c-.625,0-1.587-1.084-1.6-1.7V33.268h8.106v5.965c-.02.611-.995,1.7-1.6,1.7h4.939c-.625,0-1.587-1.084-1.6-1.7V26.273c.013-.614.987-1.71,1.6-1.71ZM113.409,0h0a.518.518,0,0,0-.463.268l-4.46,8.715-5.9-7.816a.517.517,0,0,0-.517-.2.529.529,0,0,0-.415.367l-2.88,9.358L91.6,4.026a.528.528,0,0,0-.544-.11.539.539,0,0,0-.346.436l-1.3,10.559c0,.007,0,.013,0,.019a.541.541,0,0,0,.012.171.315.315,0,0,1,.011.035.56.56,0,0,0,.1.18c.017.021.026.042.043.059l7.476,6.683.184,9.717a.846.846,0,0,0,.017.085.587.587,0,0,0,.029.122c0,.006.006.008.008.016a.525.525,0,0,0,.072.135l6.045,7.307,1.674,9.228a.527.527,0,0,0,.621.427.533.533,0,0,0,.427-.618l-1.143-6.3,3.494,6.678a.535.535,0,0,0,.456.266h.006a.512.512,0,0,0,.139-.019.531.531,0,0,0,.393-.518l-.336-7.517,2.172,7.686a.513.513,0,0,0,.547.349.538.538,0,0,0,.48-.44l1.085-7.976,1.088,7.976a.531.531,0,0,0,.476.44.513.513,0,0,0,.548-.349l2.174-7.686-.338,7.517a.533.533,0,0,0,.4.518.486.486,0,0,0,.136.019h.006a.533.533,0,0,0,.456-.266l3.5-6.678-1.146,6.3a.533.533,0,0,0,.429.618.526.526,0,0,0,.62-.427l1.676-9.228,6.044-7.307a.534.534,0,0,0,.081-.153l0,0a.824.824,0,0,0,.025-.113.573.573,0,0,0,.019-.089l.184-9.717,7.473-6.683a.319.319,0,0,0,.044-.059.436.436,0,0,0,.027-.036.5.5,0,0,0,.075-.144c0-.013.005-.023.008-.035a.54.54,0,0,0,.012-.171c0-.006,0-.012,0-.019l-1.3-10.559a.531.531,0,0,0-.889-.326l-7.174,6.664-2.877-9.358a.528.528,0,0,0-.418-.367.514.514,0,0,0-.515.2l-5.9,7.816L113.891.268A.513.513,0,0,0,113.429,0Zm-4.233,9.97h0l4.243-8.292,4.243,8.291L113.419,17.9Zm9.682.114h0l5.62-7.442,2.739,8.909-5.557,7.073ZM99.624,11.55h0l2.74-8.908,5.62,7.442-2.806,8.54Zm28.746.309h0L135.2,5.516l1.145,9.256-6.7,5.991ZM90.5,14.772h0l1.143-9.256,6.827,6.343-1.272,8.9ZM114,19.081h0l4.143-7.752,2.744,8.348-4.121,7.454Zm-8.048.594h0l2.743-8.346,4.146,7.752-2.767,8.05Zm16.073.209h0l5.432-6.915,1.242,8.705-5.348,6.614ZM98.139,21.673h0l1.245-8.7,5.434,6.915-1.328,8.4Zm12.612,6.763h0l2.668-7.766,2.669,7.763-2.669,7.534Zm-6.37,1.044h0l1.28-8.132,3.97,7.183-1.307,7.886Zm12.828-.948h0l3.969-7.183,1.282,8.13-3.949,6.937Zm6.339,1.2h0l5.154-6.371-.158,8.229-5.091,6.158ZM98.293,31.594h0l-.156-8.229,5.152,6.371.1,8.016Zm10.849,6.411h0l1.23-7.443,2.5,7.054-1.251,8.891Zm4.822-.389h0l2.5-7.052,1.235,7.443-2.483,8.5Zm4.818.477h0l3.678-6.464-.088,7.54-3.926,7.414Zm-14.315,1.076-.088-7.539,3.676,6.466.339,8.487ZM2.7,25.7a1.057,1.057,0,0,0,1.092,1.067A1.055,1.055,0,0,0,4.9,25.7a1.1,1.1,0,1,0-2.2,0" transform="translate(0.001)" fill="#3e4716"></path>
  </g>
</svg>
